<mxfile host="app.diagrams.net" modified="2024-04-01T12:13:34.309Z" agent="Mozilla/5.0 (Windows NT 10.0; Win64; x64) AppleWebKit/537.36 (KHTML, like Gecko) Chrome/123.0.0.0 Safari/537.36 Edg/123.0.0.0" etag="v0vEuUH3XUjO1_1a_X-I" version="24.2.1" type="github">
  <diagram name="第 1 页" id="mR5ox36UCSY_BWb-18im">
    <mxGraphModel dx="2373" dy="1293" grid="1" gridSize="10" guides="1" tooltips="1" connect="1" arrows="1" fold="1" page="1" pageScale="1" pageWidth="600" pageHeight="900" math="0" shadow="0">
      <root>
        <mxCell id="0" />
        <mxCell id="1" parent="0" />
        <mxCell id="CG0-PKDct2mmUirEzO0q-8" style="edgeStyle=orthogonalEdgeStyle;rounded=0;orthogonalLoop=1;jettySize=auto;html=1;exitX=0;exitY=1;exitDx=0;exitDy=0;shape=link;strokeWidth=2;" parent="1" source="CG0-PKDct2mmUirEzO0q-2" edge="1">
          <mxGeometry relative="1" as="geometry">
            <mxPoint x="49" y="870" as="targetPoint" />
          </mxGeometry>
        </mxCell>
        <mxCell id="8hxjPQtYjokS3KxjAwWf-1" style="edgeStyle=orthogonalEdgeStyle;rounded=0;orthogonalLoop=1;jettySize=auto;html=1;exitX=1;exitY=1;exitDx=0;exitDy=0;shape=link;strokeWidth=2;" edge="1" parent="1" source="CG0-PKDct2mmUirEzO0q-2">
          <mxGeometry relative="1" as="geometry">
            <mxPoint x="549.3333333333335" y="870" as="targetPoint" />
          </mxGeometry>
        </mxCell>
        <mxCell id="CG0-PKDct2mmUirEzO0q-2" value="用户" style="html=1;whiteSpace=wrap;strokeWidth=3;fontSize=30;fontStyle=1" parent="1" vertex="1">
          <mxGeometry x="49" y="30" width="500" height="50" as="geometry" />
        </mxCell>
        <mxCell id="CG0-PKDct2mmUirEzO0q-11" value="" style="ellipse;html=1;shape=startState;fillColor=#000000;strokeColor=#ff0000;" parent="1" vertex="1">
          <mxGeometry x="209" y="100" width="50" height="50" as="geometry" />
        </mxCell>
        <mxCell id="CG0-PKDct2mmUirEzO0q-12" value="" style="edgeStyle=orthogonalEdgeStyle;html=1;verticalAlign=bottom;endArrow=open;endSize=8;strokeColor=#ff0000;rounded=0;strokeWidth=5;" parent="1" source="CG0-PKDct2mmUirEzO0q-11" edge="1">
          <mxGeometry relative="1" as="geometry">
            <mxPoint x="239" y="280" as="targetPoint" />
          </mxGeometry>
        </mxCell>
        <mxCell id="CG0-PKDct2mmUirEzO0q-13" value="开始" style="text;html=1;align=center;verticalAlign=middle;resizable=0;points=[];autosize=1;strokeColor=none;fillColor=none;fontSize=50;" parent="1" vertex="1">
          <mxGeometry x="294" y="90" width="120" height="70" as="geometry" />
        </mxCell>
        <mxCell id="CG0-PKDct2mmUirEzO0q-14" value="&lt;font style=&quot;font-size: 30px;&quot;&gt;输入账号密码&lt;/font&gt;" style="rounded=1;whiteSpace=wrap;html=1;arcSize=40;fontColor=#000000;fillColor=#ffffc0;strokeColor=#ff0000;strokeWidth=2;" parent="1" vertex="1">
          <mxGeometry x="124" y="210" width="230" height="70" as="geometry" />
        </mxCell>
        <mxCell id="CG0-PKDct2mmUirEzO0q-15" value="" style="edgeStyle=orthogonalEdgeStyle;html=1;verticalAlign=bottom;endArrow=open;endSize=8;strokeColor=#ff0000;rounded=0;strokeWidth=5;" parent="1" source="CG0-PKDct2mmUirEzO0q-14" target="CG0-PKDct2mmUirEzO0q-19" edge="1">
          <mxGeometry relative="1" as="geometry">
            <mxPoint x="229" y="410" as="targetPoint" />
          </mxGeometry>
        </mxCell>
        <mxCell id="CG0-PKDct2mmUirEzO0q-24" style="edgeStyle=orthogonalEdgeStyle;rounded=0;orthogonalLoop=1;jettySize=auto;html=1;exitX=1;exitY=0.5;exitDx=0;exitDy=0;entryX=1;entryY=0.5;entryDx=0;entryDy=0;strokeWidth=5;strokeColor=#FF0000;fontSize=50;" parent="1" source="CG0-PKDct2mmUirEzO0q-19" target="CG0-PKDct2mmUirEzO0q-14" edge="1">
          <mxGeometry relative="1" as="geometry">
            <Array as="points">
              <mxPoint x="494" y="430" />
              <mxPoint x="494" y="245" />
            </Array>
          </mxGeometry>
        </mxCell>
        <mxCell id="CG0-PKDct2mmUirEzO0q-25" value="否" style="edgeLabel;html=1;align=center;verticalAlign=middle;resizable=0;points=[];fontSize=30;" parent="CG0-PKDct2mmUirEzO0q-24" vertex="1" connectable="0">
          <mxGeometry x="-0.0459" y="-1" relative="1" as="geometry">
            <mxPoint y="1" as="offset" />
          </mxGeometry>
        </mxCell>
        <mxCell id="CG0-PKDct2mmUirEzO0q-31" style="edgeStyle=orthogonalEdgeStyle;rounded=0;orthogonalLoop=1;jettySize=auto;html=1;exitX=0.5;exitY=1;exitDx=0;exitDy=0;entryX=0.5;entryY=0;entryDx=0;entryDy=0;strokeWidth=5;strokeColor=#FF0000;" parent="1" source="CG0-PKDct2mmUirEzO0q-19" target="CG0-PKDct2mmUirEzO0q-28" edge="1">
          <mxGeometry relative="1" as="geometry" />
        </mxCell>
        <mxCell id="CG0-PKDct2mmUirEzO0q-32" value="是" style="edgeLabel;html=1;align=center;verticalAlign=middle;resizable=0;points=[];fontSize=30;" parent="CG0-PKDct2mmUirEzO0q-31" vertex="1" connectable="0">
          <mxGeometry x="-0.2619" y="1" relative="1" as="geometry">
            <mxPoint x="1" as="offset" />
          </mxGeometry>
        </mxCell>
        <mxCell id="CG0-PKDct2mmUirEzO0q-19" value="是否无误" style="rhombus;whiteSpace=wrap;html=1;fontColor=#000000;fillColor=#ffffc0;strokeColor=#ff0000;fontSize=30;strokeWidth=2;" parent="1" vertex="1">
          <mxGeometry x="99" y="390" width="280" height="80" as="geometry" />
        </mxCell>
        <mxCell id="CG0-PKDct2mmUirEzO0q-34" style="edgeStyle=orthogonalEdgeStyle;rounded=0;orthogonalLoop=1;jettySize=auto;html=1;exitX=0.5;exitY=1;exitDx=0;exitDy=0;entryX=0.5;entryY=0;entryDx=0;entryDy=0;strokeWidth=5;strokeColor=#FF0000;" parent="1" source="CG0-PKDct2mmUirEzO0q-28" target="CG0-PKDct2mmUirEzO0q-33" edge="1">
          <mxGeometry relative="1" as="geometry" />
        </mxCell>
        <mxCell id="CG0-PKDct2mmUirEzO0q-28" value="数据匹配" style="rounded=1;whiteSpace=wrap;html=1;arcSize=40;fontColor=#000000;fillColor=#ffffc0;strokeColor=#ff0000;fontSize=30;strokeWidth=2;" parent="1" vertex="1">
          <mxGeometry x="149" y="580" width="180" height="70" as="geometry" />
        </mxCell>
        <mxCell id="CG0-PKDct2mmUirEzO0q-33" value="" style="ellipse;html=1;shape=endState;fillColor=#000000;strokeColor=#ff0000;" parent="1" vertex="1">
          <mxGeometry x="214" y="740" width="50" height="50" as="geometry" />
        </mxCell>
        <mxCell id="CG0-PKDct2mmUirEzO0q-35" value="结束" style="text;html=1;align=center;verticalAlign=middle;resizable=0;points=[];autosize=1;strokeColor=none;fillColor=none;fontSize=50;" parent="1" vertex="1">
          <mxGeometry x="294" y="730" width="120" height="70" as="geometry" />
        </mxCell>
      </root>
    </mxGraphModel>
  </diagram>
</mxfile>
